<?xml version="1.0" encoding="UTF-8" standalone="no"?>
<svg
   fill="#FFF"
   width="24"
   height="24"
   viewBox="0 0 24 24"
   version="1.1"
   id="svg19"
   sodipodi:docname="leftArrow.svg"
   inkscape:version="1.1 (c68e22c387, 2021-05-23)"
   xmlns:inkscape="http://www.inkscape.org/namespaces/inkscape"
   xmlns:sodipodi="http://sodipodi.sourceforge.net/DTD/sodipodi-0.dtd"
   xmlns="http://www.w3.org/2000/svg"
   xmlns:svg="http://www.w3.org/2000/svg">
  <defs
     id="defs23" />
  <sodipodi:namedview
     id="namedview21"
     pagecolor="#505050"
     bordercolor="#eeeeee"
     borderopacity="1"
     inkscape:pageshadow="0"
     inkscape:pageopacity="0"
     inkscape:pagecheckerboard="0"
     showgrid="false"
     inkscape:zoom="48.708333"
     inkscape:cx="12"
     inkscape:cy="12"
     inkscape:window-width="2560"
     inkscape:window-height="1377"
     inkscape:window-x="3832"
     inkscape:window-y="386"
     inkscape:window-maximized="1"
     inkscape:current-layer="svg19" />
  <path
     d="M 12,2 C 6.486,2 2,6.486 2,12 2,17.514 6.486,22 12,22 17.514,22 22,17.514 22,12 22,6.486 17.514,2 12,2 Z M 12,0 C 18.627,0 24,5.373 24,12 24,18.627 18.627,24 12,24 5.373,24 0,18.627 0,12 0,5.373 5.373,0 12,0 Z M 10,12 14.5,16.5 12.973,18 7,12 12.973,6 14.5,7.5 Z"
     id="path17" />
</svg>
